<?xml version="1.0" encoding="UTF-8"?>
<svg width="24px" height="20px" viewBox="0 0 24 20" version="1.1" xmlns="http://www.w3.org/2000/svg" xmlns:xlink="http://www.w3.org/1999/xlink">
    <!-- Generator: sketchtool 61 (101010) - https://sketch.com -->
    <title>441D801C-491E-4A14-BA7B-F458B4BFA10E</title>
    <desc>Created with sketchtool.</desc>
    <g id="Mobile-app" stroke="none" stroke-width="1" fill="none" fill-rule="evenodd">
        <g id="Recupero-Credenziali-2.1.0-errore" transform="translate(-24.000000, -364.000000)" fill="#E30322">
            <g id="Group-2" transform="translate(24.000000, 354.000000)">
                <path d="M11.0668581,26.4908108 C11.0668581,26.3598973 11.0897755,26.2374324 11.1376902,26.1212973 C11.1845649,26.0051649 11.2501917,25.9048703 11.3324824,25.8204054 C11.4147732,25.7348892 11.5137334,25.6673216 11.6283228,25.6166459 C11.742907,25.567027 11.8658218,25.5416892 11.99603,25.5416892 C12.1262382,25.5416892 12.248113,25.567027 12.3626971,25.6166459 C12.4783213,25.6673216 12.5772814,25.7348892 12.6626975,25.8204054 C12.7481136,25.9059216 12.8137404,26.0062162 12.8616551,26.1212973 C12.9095725,26.2374297 12.9335299,26.3598946 12.9335299,26.4908108 C12.9335299,26.6259459 12.9095725,26.7505243 12.8616551,26.8634865 C12.8137377,26.9764514 12.7481136,27.0756919 12.6626975,27.1612162 C12.5772814,27.2467405 12.4783213,27.3132432 12.3626971,27.3607514 C12.248113,27.4082595 12.1251982,27.4325405 11.99603,27.4325405 C11.8658218,27.4325405 11.7429043,27.4082568 11.6283228,27.3607514 C11.5126987,27.3121865 11.4147812,27.2456757 11.3324824,27.1612162 C11.2501917,27.0757 11.1845649,26.9764622 11.1376902,26.8634865 C11.0897728,26.7505216 11.0668581,26.6259432 11.0668581,26.4908108 Z M12.6908069,16.8918919 L12.6908069,21.5308108 C12.6908069,21.7736324 12.6866389,22.0122162 12.6783056,22.2444865 C12.6710149,22.4767486 12.6585162,22.7111351 12.6428895,22.9465676 C12.6272655,23.182 12.6074735,23.4227027 12.5835134,23.6687027 C12.5595561,23.9146919 12.5324707,24.1786216 12.50018,24.4594595 L11.5449787,24.4594595 C11.513728,24.1786216 11.4856026,23.9147027 11.462688,23.6687027 C11.4387306,23.4227135 11.4189386,23.182 11.4033119,22.9465676 C11.3876879,22.7111378 11.3751865,22.4778108 11.3678958,22.2444865 C11.3595625,22.0122216 11.3553971,21.7736216 11.3553971,21.5308108 L11.3564398,16.8918919 L12.6908069,16.8918919 Z M12.0001927,10 C11.6314455,10 11.2887251,10.1932 11.0939515,10.510973 L0.160603699,28.3488108 C-0.0435619038,28.6824324 -0.0539805842,29.1015676 0.134562065,29.4446757 C0.323103647,29.7877838 0.679362784,30 1.06685663,30 L22.9335511,30 C23.3210449,30 23.6773121,29.7877946 23.8658457,29.4436216 C24.0533446,29.1005135 24.0439712,28.6813784 23.8398056,28.3477568 L12.9064579,10.5099189 C12.7116656,10.1931892 12.3689638,10 12.0002167,10 L12.0001927,10 Z" id="Fill-1"></path>
            </g>
        </g>
    </g>
</svg>