<svg xmlns="http://www.w3.org/2000/svg" width="375" height="577" viewBox="0 0 375 577">
  <path fill="#E9EFFD" fill-rule="evenodd" d="M23.7949547,694.718155 C62.9597035,615.543739 120.716295,603.096254 115.405537,539.833514 C110.094778,476.570773 56.3233497,407.854347 71.5917801,364.224871 C86.8602104,320.595395 100.800951,305.870446 133.993191,293.87234 C167.185431,281.874234 301.945925,292.781603 325.844337,270.421497 C349.74275,248.06139 392.228817,186.980123 406.833403,124.262751 C421.437988,61.5453785 473.217882,59.9092731 534.955448,52.8194832 C596.693015,45.7296933 734.772732,62.090747 785.224937,52.8194832 C835.677142,43.5482195 916.002362,25.5510605 939.23693,1.00948 C954.726642,-15.3515736 954.726642,167.165069 939.23693,548.559409 C931.713356,566.738357 908.036225,579.281832 868.205537,586.189832 C808.459505,596.551833 785.224937,582.372253 744.730404,600.914781 C704.235872,619.457308 629.958799,734.522059 615.354214,739.430375 C607.195228,742.172451 466.924942,757.402532 189,757.402532 C84.9367283,757.402532 25.2459812,751.411813 9.92775891,739.430375 C-6.93727649,762.405172 -2.3148779,747.501099 23.7949547,694.718155 Z" transform="translate(-21 -181)"/>
</svg>
