<?xml version="1.0" encoding="UTF-8"?>
<svg width="18px" height="18px" viewBox="0 0 18 18" version="1.1" xmlns="http://www.w3.org/2000/svg" xmlns:xlink="http://www.w3.org/1999/xlink">
    <!-- Generator: sketchtool 61.2 (101010) - https://sketch.com -->
    <title>13BBC4E3-DBDC-40D5-8744-FC82DC58C423</title>
    <desc>Created with sketchtool.</desc>
    <g id="web" stroke="none" stroke-width="1" fill="none" fill-rule="evenodd">
        <g id="Dashboard-login" transform="translate(-879.000000, -382.000000)" fill="#DADADA" fill-rule="nonzero">
            <g id="Group-3" transform="translate(577.000000, 156.000000)">
                <g id="Login" transform="translate(24.000000, 136.000000)">
                    <path d="M294.95284,90.1974638 C295.186209,89.9640766 295.569187,89.9640766 295.802574,90.1974638 C296.035789,90.4310234 296.035789,90.8140021 295.802402,91.0473894 L295.802402,91.0473894 L279.047083,107.802709 C278.927402,107.916405 278.777811,107.976246 278.622206,107.976246 C278.466602,107.976246 278.317011,107.916405 278.19733,107.802709 C277.963943,107.56934 277.963943,107.186362 278.19733,106.952974 L278.19733,106.952974 L282.332351,102.817953 C280.5371,101.4714 279.57366,99.6403404 279.274457,99.0000383 C279.765245,97.9648468 282.116926,93.6144 286.999904,93.6144 C288.424202,93.6144 289.621011,93.979417 290.62633,94.5239745 L290.62633,94.5239745 Z M292.49941,95.8942245 C293.76728,97.109033 294.474144,98.4674202 294.725474,98.9999904 C294.234686,100.035182 291.883006,104.385629 287.000027,104.385629 C286.05451,104.385629 285.204776,104.224069 284.445559,103.948803 L284.445559,103.948803 L285.492776,102.901586 L286.45545,101.938165 C286.628997,101.974069 286.814502,101.992021 287.000008,101.992021 C288.651603,101.992021 289.992029,100.651596 289.992029,99 C289.992029,98.8144851 289.974077,98.6289798 289.938921,98.4554426 L289.938921,98.4554426 L290.901596,97.4920213 Z M287.000038,96.0078638 C285.348443,96.0078638 284.008017,97.3482894 284.008017,98.9998851 C284.008017,99.6102766 284.193532,100.172757 284.504702,100.645506 L284.504702,100.645506 L288.64566,96.5045489 C288.172911,96.1933691 287.610411,96.0078638 287.000038,96.0078638 Z" id="Combined-Shape"></path>
                </g>
            </g>
        </g>
    </g>
</svg>