<?xml version="1.0" encoding="UTF-8"?>
<svg width="26px" height="32px" viewBox="0 0 26 32" version="1.1" xmlns="http://www.w3.org/2000/svg" xmlns:xlink="http://www.w3.org/1999/xlink">
    <!-- Generator: sketchtool 61 (101010) - https://sketch.com -->
    <title>916885F6-C480-49E6-B049-A3777315395C</title>
    <desc>Created with sketchtool.</desc>
    <g id="web" stroke="none" stroke-width="1" fill="none" fill-rule="evenodd">
        <g id="Richieste-4" transform="translate(-854.000000, -13.000000)">
            <g id="header">
                <g id="bell-notifications-on-ico" transform="translate(851.000000, 13.000000)">
                    <g id="Icons/Utility/Notification" fill="#002956">
                        <path d="M28.4129145,21.5469614 L26.2768848,18.5886719 L26.2768848,13.2104526 C26.2768848,8.77375793 23.5910578,4.77269897 19.6108517,3.22746936 C19.6108517,1.44566533 18.1876947,0 16.472555,0 L15.5347417,0 C13.819602,0 12.396445,1.44566533 12.396445,3.26027649 C8.41630355,4.80705234 5.73041184,8.77227892 5.73041184,13.2432598 L5.73041184,18.621479 L3.59438212,21.5797685 C2.91438462,22.5212258 2.81835129,23.7646701 3.3036807,24.840045 C3.78902434,25.9154199 4.82416526,26.5548902 5.98950769,26.5548902 L10.7455518,26.5548902 C10.7455518,29.5459861 13.1078164,32 15.9869396,32 C18.8661275,32 21.2283273,29.5800699 21.2283273,26.5548902 L25.9843715,26.5548902 C27.1168399,26.5548902 28.1519809,25.8826128 28.6701984,24.840045 C29.188416,23.7318293 29.0910885,22.4870741 28.412358,21.5469277 L28.4129145,21.5469614 Z M16.02015,29.4462198 C14.4667915,29.4462198 13.1725418,28.1358177 13.1725418,26.522083 L18.8678877,26.522083 C18.8678877,28.1345068 17.5736379,29.4462198 16.0202794,29.4462198 L16.02015,29.4462198 Z M26.5359289,23.6636268 C26.4714688,23.7647306 26.3412867,23.9997655 26.0177113,23.9997655 L6.022524,23.9997655 C5.69896158,23.9997655 5.53718036,23.7647306 5.50430642,23.6636268 C5.43984631,23.562523 5.37538621,23.2933364 5.56876653,23.025501 L7.9310311,19.7310729 C8.09281231,19.5288653 8.15727242,19.2610165 8.15727242,18.9918366 L8.15727242,13.2105871 C8.15727242,9.54734754 10.5511167,6.31974373 13.9483927,5.34561377 C14.4666103,5.21168266 14.8217524,4.70748806 14.8217524,4.13497662 L14.8217524,3.22767104 C14.8217524,2.79042182 15.1453149,2.45428311 15.5662049,2.45428311 L16.5040182,2.45428311 C16.9249082,2.45428311 17.2484706,2.79042182 17.2484706,3.22767104 L17.2484706,4.10216948 C17.2484706,4.67333637 17.604907,5.14473728 18.1218304,5.31280663 C21.5205301,6.31991179 23.8828594,9.58008745 23.8828594,13.2107216 L23.8828594,18.9919711 C23.8828594,19.2611442 23.9801805,19.5303308 24.1091007,19.7312073 L26.4713653,23.0256355 C26.6976066,23.2948087 26.6002855,23.5639952 26.5358254,23.6637612 L26.5359289,23.6636268 Z" id="Fill-1"></path>
                    </g>
                    <circle id="Oval" fill="#982C38" cx="23" cy="9" r="4"></circle>
                </g>
            </g>
        </g>
    </g>
</svg>