<?xml version="1.0" encoding="UTF-8"?>
<svg width="29px" height="29px" viewBox="0 0 29 29" version="1.1" xmlns="http://www.w3.org/2000/svg" xmlns:xlink="http://www.w3.org/1999/xlink">
    <!-- Generator: sketchtool 61 (101010) - https://sketch.com -->
    <title>A54C8493-36E3-4D8F-A841-37933A44B2C3</title>
    <desc>Created with sketchtool.</desc>
    <g id="Asset-Artboard-Page" stroke="none" stroke-width="1" fill="none" fill-rule="evenodd">
        <g id="Icons/Notifications/Check" fill="#88BD87">
            <g id="icon">
                <circle id="Oval" opacity="0.199999988" cx="14.5" cy="14.5" r="14.5"></circle>
                <g id="np_check_1813702_000000" transform="translate(5.000000, 8.000000)" fill-rule="nonzero">
                    <path d="M18.0292735,0.00649178096 C17.8337862,0.0318624151 17.6529039,0.122314978 17.5169783,0.262403552 C17.1788037,0.594432309 14.5600354,3.23620423 11.8996209,5.91886556 C9.4897455,8.34893315 7.44623078,10.4127469 6.83045267,11.028347 L1.39285299,6.96030293 C1.210849,6.82131565 0.979410196,6.75954385 0.75021189,6.78932704 C0.5221439,6.8180061 0.314306566,6.93713885 0.174987128,7.11695058 C0.0356734432,7.29785232 -0.023870948,7.52618351 0.00871265862,7.75011513 C0.0412962653,7.97404676 0.164877553,8.17589584 0.350252361,8.31048072 L6.39011236,12.8286472 C6.73501713,13.0845589 7.21811964,13.0503649 7.52258611,12.7492263 C7.86076075,12.4171975 10.479529,9.78417955 13.1399435,7.10151822 C15.800358,4.41885689 18.5024764,1.68649573 18.739469,1.45381016 C19.0046131,1.20010382 19.0754002,0.807401732 18.9147342,0.479806426 C18.7540768,0.152182882 18.3968018,-0.0386249349 18.0294345,0.00658496814 L18.0292735,0.00649178096 Z" id="Path"></path>
                </g>
            </g>
        </g>
    </g>
</svg>