<?xml version="1.0" encoding="UTF-8"?>
<svg width="29px" height="29px" viewBox="0 0 29 29" version="1.1" xmlns="http://www.w3.org/2000/svg" xmlns:xlink="http://www.w3.org/1999/xlink">
    <!-- Generator: sketchtool 61 (101010) - https://sketch.com -->
    <title>CA07959E-2B0A-4377-B21A-0E0E4C6534C1</title>
    <desc>Created with sketchtool.</desc>
    <g id="Asset-Artboard-Page" stroke="none" stroke-width="1" fill="none" fill-rule="evenodd">
        <g id="Icons/Notifications/Error" fill="#E30322">
            <g id="icon">
                <circle id="Oval" opacity="0.199999988" cx="14.5" cy="14.5" r="14.5"></circle>
                <path d="M19.4900715,9.50992218 C19.7734749,9.79428174 19.782221,10.2514186 19.5085126,10.5454929 L15.5536667,14.4996667 L19.4904153,18.4359502 C19.7029726,18.6494696 19.7670353,18.9697364 19.6515322,19.2482821 C19.5360341,19.5268279 19.2642692,19.7083333 18.9633986,19.7083333 C18.7653844,19.7083333 18.5761209,19.6297189 18.4363574,19.4899615 L14.4996667,15.5536667 L10.5636411,19.4899616 C10.4238775,19.6297189 10.2346189,19.7083333 10.0366142,19.7083333 C9.73572887,19.7083333 9.46395386,19.5268354 9.34846563,19.2482823 C9.23296746,18.9697366 9.29702517,18.6494501 9.50958264,18.4359506 L13.4456667,14.4996667 L9.4914908,10.5454898 C9.21777788,10.2514154 9.22652397,9.79430322 9.50993189,9.50991871 C9.7943041,9.22652803 10.2514613,9.21778233 10.5455487,9.49147844 L14.4996667,13.4456667 L18.4544542,9.49148191 C18.7485417,9.21778117 19.2056743,9.22652687 19.4900715,9.50992218 Z" id="Combined-Shape" fill-rule="nonzero"></path>
            </g>
        </g>
    </g>
</svg>