<?xml version="1.0" encoding="UTF-8"?>
<svg width="17px" height="12px" viewBox="0 0 17 12" version="1.1" xmlns="http://www.w3.org/2000/svg" xmlns:xlink="http://www.w3.org/1999/xlink">
    <!-- Generator: sketchtool 61.2 (101010) - https://sketch.com -->
    <title>58BD161F-B71B-4A8F-9C63-E13D569FAF0A</title>
    <desc>Created with sketchtool.</desc>
    <g id="web" stroke="none" stroke-width="1" fill="none" fill-rule="evenodd">
        <g id="Dashboard-login" transform="translate(-902.000000, -385.000000)" fill="#DADADA">
            <g id="Group-3" transform="translate(577.000000, 156.000000)">
                <g id="Login" transform="translate(24.000000, 136.000000)">
                    <path d="M309.25,93 C305.5,93 302.2975,95.3325 301,98.625 C302.2975,101.9175 305.5,104.25 309.25,104.25 C313,104.25 316.2025,101.9175 317.5,98.625 C316.2025,95.3325 313,93 309.25,93 Z M309.25,102.375 C307.18,102.375 305.5,100.695 305.5,98.625 C305.5,96.555 307.18,94.875 309.25,94.875 C311.32,94.875 313,96.555 313,98.625 C313,100.695 311.32,102.375 309.25,102.375 Z M309.25,96.375 C308.005,96.375 307,97.38 307,98.625 C307,99.87 308.005,100.875 309.25,100.875 C310.495,100.875 311.5,99.87 311.5,98.625 C311.5,97.38 310.495,96.375 309.25,96.375 Z" id="Eye"></path>
                </g>
            </g>
        </g>
    </g>
</svg>