<?xml version="1.0" encoding="UTF-8"?>
<svg width="36px" height="40px" viewBox="0 0 36 40" version="1.1" xmlns="http://www.w3.org/2000/svg" xmlns:xlink="http://www.w3.org/1999/xlink">
    <!-- Generator: sketchtool 61 (101010) - https://sketch.com -->
    <title>45210F71-874D-49EC-A91F-E22565BBE3D5</title>
    <desc>Created with sketchtool.</desc>
    <g id="Mobile-app" stroke="none" stroke-width="1" fill="none" fill-rule="evenodd">
        <g id="Login-0.0" transform="translate(-170.000000, -601.000000)" fill="#002855">
            <g id="impronta" transform="translate(119.000000, 601.000000)">
                <path d="M61.9951167,11.3426333 C66.8697,9.09163333 72.5797,9.4253 77.3288667,11.9253 C79.16145,12.8839667 80.7451167,14.2593 81.9951167,15.8836333 C83.1197833,17.3014667 84.1207833,18.9681333 84.70345,20.7178 C85.5791167,23.3836333 85.78745,26.6763833 83.91245,28.9257167 C82.3712,30.7583917 79.6205333,31.3427167 77.3712,30.6753833 C76.0788667,30.30105 74.9948667,29.5507167 74.2038667,28.50905 C73.995525,28.2583833 73.7871917,27.924725 73.6618667,27.6333833 C73.5365417,27.3827167 73.4112167,27.0490583 73.3282083,26.7577167 C73.2875167,26.6323917 73.2875167,26.466375 73.2452,26.34105 C73.2452,26.215725 73.2028833,26.1327167 73.2028833,26.0073917 L73.2054318,26.0329842 L73.212287,26.0702059 C73.2201235,26.106174 73.2279599,26.1252294 73.2140285,26.0338806 L73.2028833,25.965075 C73.0792167,25.0064083 73.1198833,24.1307417 72.6202167,23.3397417 C72.20355,22.6724083 71.5362167,22.17275 70.8282167,21.8814083 C68.9127167,21.0904083 66.62105,21.4224083 65.45405,23.3397417 C64.9137,24.256075 64.7460583,25.2977417 64.8713833,26.3394083 C64.8713833,26.4631083 64.9137,26.5884333 64.9137,26.7137583 L64.9124318,26.7059842 L64.9025549,26.6616214 C64.8830509,26.5775554 64.9062119,26.737014 64.9123069,26.7287619 L64.9137,26.7137583 C64.9560167,26.75445 64.9560167,26.7967667 64.9560167,26.879775 C64.9983333,27.128775 65.039025,27.3794333 65.0813417,27.670775 C65.2066583,28.295775 65.372675,28.920775 65.5810083,29.5034417 C65.6217,29.66945 65.6640167,29.8370917 65.747025,30.0031083 C65.747025,30.045425 65.7877167,30.1284333 65.8300333,30.2114417 L65.8300333,30.2114417 L65.8444318,30.2389842 L65.851801,30.2529458 L65.851801,30.2529458 L65.8524318,30.2549842 L65.8504318,30.2519842 L65.8564318,30.2639842 L65.8524318,30.2549842 L65.858728,30.2668886 C65.8604797,30.2704554 65.8614016,30.2724009 65.860677,30.2711039 L65.8574318,30.2659842 L65.87235,30.29445 C65.9553542,30.46045 66.0387667,30.6268688 66.1221802,30.7934948 L66.3720167,31.2937833 C67.20535,32.7521167 68.1216833,33.91745 69.4546833,35.00145 C71.03835,36.3361167 73.07935,37.2931183 75.0796833,37.9604517 C76.2466833,38.334785 75.7470167,40.1674683 74.5800167,39.7931183 C73.45535,39.418785 72.3306833,39.0021183 71.2890167,38.4601183 C68.0405167,36.8359513 65.4151833,34.16995 64.03985,30.7942833 C62.8321833,27.8776167 62.2071833,24.0852 64.4565167,21.5022 C67.4156833,18.0860333 73.95685,19.5018667 74.8731833,24.0852 C74.9155,24.4595333 74.9985083,24.7932083 74.9985083,25.1268667 C75.040825,25.3352 74.9578167,25.6265333 75.040825,25.8348667 C74.8748083,25.460525 74.9985083,25.794175 75.040825,25.9601917 C75.040825,26.0855167 75.0815167,26.2515333 75.1238333,26.3768583 C75.2068417,26.625875 75.2491583,26.7105083 75.3321667,26.876525 C75.7488333,27.6691917 76.3331667,28.2518583 77.1241667,28.668525 C78.1658333,29.2105167 79.4158333,29.293525 80.4998333,28.9598667 C80.9995,28.8345333 81.4991667,28.6261917 81.9158333,28.2925333 C81.9988417,28.2518417 82.1241667,28.1265167 82.2494917,28.0011917 L82.2494917,28.0011917 L82.457825,27.7928583 C82.457825,27.7928583 82.5090647,27.7154972 82.5403779,27.668221 C83.0404917,27.0018667 83.2065083,26.5428667 83.3318333,25.7095333 L83.3318333,25.7095333 L83.3318333,24.710175 C83.3318333,24.3358417 83.3318333,24.0021667 83.2895167,23.6685083 C83.2895167,23.6278167 83.2472,23.2518417 83.2895167,23.5024917 L83.2884318,23.4949842 L83.2785457,23.4183398 C83.2722765,23.3904296 83.2644401,23.3626398 83.258171,23.3349102 L83.2472,23.2518417 C83.2065083,23.0841833 83.2065083,22.9181667 83.1641917,22.7928417 C83.1235,22.542175 83.0811833,22.2931583 82.998175,22.0425083 C82.9151667,21.7495083 82.8321583,21.4581833 82.7068333,21.1668417 C82.6645167,21.124525 82.623825,21.000825 82.7068333,21.1668417 L82.7044318,21.1619842 L82.5709586,20.8743373 C82.5231552,20.7769802 82.4738448,20.6797466 82.4260414,20.5825738 L82.2901667,20.291175 C82.0395,19.749175 81.748175,19.207175 81.4568333,18.7075083 C80.9148333,17.7895083 80.3321667,16.9155083 79.5818333,16.165175 C78.2083333,14.7068417 76.4993333,13.6228417 74.6243333,12.9148417 C72.24975,11.9985 69.7091667,11.622525 67.1668333,11.873175 C64.83475,12.0815083 62.5835833,12.957175 60.6255833,14.207175 C59.8329167,14.7068417 59.16725,15.2488417 58.4999167,15.8738417 C57.9155833,16.4158417 57.4159167,17.000175 56.99925,17.5828417 C56.0829167,18.875175 55.58325,20.0828417 55.1665833,21.5835083 C55.0412583,21.917175 54.9989417,22.2931583 54.9159333,22.6675083 C54.8752417,22.8335167 54.8752417,23.0011583 54.832925,23.167175 C54.832925,23.1852602 54.8245662,23.2448186 54.8189936,23.2871229 L54.8184318,23.2899842 L54.8031466,23.3343352 C54.7968775,23.3622454 54.7937429,23.3900352 54.7921756,23.4177648 L54.7906083,23.5008333 C54.7076,24.1665 54.6652833,24.8745 54.6652833,25.5418333 C54.6652833,26.2091667 54.6652833,26.8341667 54.7482917,27.4591667 C54.7482917,27.625175 54.7906083,27.7928167 54.7906083,27.9588333 C54.832925,28.0418417 54.832925,28.0841583 54.832925,28.1671667 C54.8752417,28.4161667 54.9159333,28.7075167 54.95825,28.9581667 C55.1665833,30.1658333 55.4155833,31.3328333 55.8745833,32.4575 L55.8745833,32.4575 C56.081875,32.9587833 55.6652,33.54145 55.4112917,33.5935333 C54.8692917,33.7595333 54.452625,33.4258667 54.2442917,32.9262 C54.2442917,32.8415667 54.2036,32.7585583 54.1612833,32.67555 C53.57695,31.00905 53.2433,29.2593833 53.0772833,27.5097167 C52.78595,24.59305 53.1196167,21.63405 54.2442833,18.96805 C55.7026167,15.5093 58.61945,12.8839667 61.9951167,11.3426333 Z M67.3753333,14.7510833 C71.1253333,14.2495833 75.2919167,15.6674167 77.6665833,18.6670833 C79.1655833,20.5420833 80.1242583,22.91675 80.04125,25.33375 L80.04125,25.33375 C80.0412583,26.5840333 78.1255583,26.5840333 78.04255,25.4186583 C78.04255,25.127325 78.04255,24.79365 78.0002333,24.4599917 C78.0002333,24.3769833 77.9579167,24.043325 78.0002333,24.3769833 L77.9984318,24.3649842 L77.9892623,24.2626293 C77.9829932,24.2271235 77.9751568,24.1931849 77.9688877,24.157679 L77.9579167,24.043325 C77.8749083,23.501325 77.7072667,23.0016583 77.54125,22.5019917 C77.5005583,22.3766667 77.41755,22.21065 77.3752333,22.085325 C77.2906,21.8769917 77.415925,22.21065 77.3329167,22.0023167 C77.3329167,21.9193083 77.292225,21.8769917 77.2499083,21.7939833 C77.1245833,21.50265 76.9992583,21.2113 76.8332417,20.96065 C76.416575,20.25265 76.1252417,19.8783167 75.5832417,19.3363167 C74.5839083,18.29465 73.3339083,17.5459833 71.875575,17.0869833 C69.917575,16.462 67.8342417,16.3773333 65.8339083,17.0446667 C64.9599083,17.336 64.209575,17.7526667 63.4592417,18.2523333 C62.9172417,18.669 62.500575,18.9603333 61.958575,19.5023333 C60.8762417,20.5846667 60.1259,22.0023333 59.7922417,23.5436667 C59.6246,24.3363333 59.5415917,25.1273333 59.5415917,25.9606667 C59.5415917,26.3366667 59.5822833,26.7533167 59.6246,27.1276667 C59.6246,27.2529917 59.6669167,27.4190083 59.6669167,27.5443333 L59.6669167,27.5443333 L59.6764318,27.6009842 L59.691381,27.6238061 C59.7032826,27.6521371 59.7072497,27.6858592 59.7085721,27.7145965 L59.7092333,27.7526667 C59.749925,28.0033333 59.7922417,28.2946583 59.87525,28.586 C60.6256667,32.1276667 62.5430833,35.2526667 65.1260833,37.7526654 C66.00175,38.5859988 64.66875,39.9189988 63.7930833,39.0856654 C60.7105,36.1265 58.5018333,32.2510833 57.8768333,28.0015 C57.5431667,25.6694167 57.7091667,23.25225 58.6678333,21.0435833 C60.1665833,17.66775 63.7506667,15.2100833 67.3753333,14.7510833 Z M67.8750417,25.2507042 C67.917375,24.0413833 69.7923792,24.0413833 69.789125,25.2067583 L69.789125,25.2067583 L69.789125,25.9570917 C69.789125,25.965555 69.7908177,25.9839793 69.7931874,26.0063751 L69.7934318,26.0109842 C69.8089292,26.0240672 69.8256866,26.1375438 69.8302568,26.1883246 L69.8314417,26.2077417 C69.91445,26.582075 69.9974583,26.9580583 70.1227833,27.3324083 C70.2057917,27.5407417 70.2481083,27.749075 70.3311167,27.9574083 C70.3734333,28.0827333 70.414125,28.1657417 70.4564417,28.2910667 C70.4658454,28.3001093 70.4751688,28.3133313 70.4830724,28.3261424 L70.4884318,28.3359842 L70.4987583,28.374075 C70.6550083,28.718325 70.8112677,29.0387625 70.9853747,29.3532469 L71.1660917,29.6664083 C71.33375,29.8747417 71.459075,30.1254083 71.6250917,30.3337417 C71.6250917,30.3760583 71.8757417,30.6674 71.7504167,30.542075 C71.83505,30.6250833 71.9180583,30.7504083 72.0010667,30.8334167 C72.3347333,31.2500833 72.7514,31.6667583 73.1680667,32.0004167 C73.1680667,32.0411083 73.2087583,32.0411083 73.251075,32.083425 L73.251075,32.083425 L73.2937552,32.1253204 C73.3244991,32.15305 73.3617528,32.1805389 73.4170917,32.20875 C73.5424167,32.2510667 73.625425,32.334075 73.75075,32.4170833 C74.0014167,32.5424083 74.2504333,32.708425 74.5010833,32.83375 C75.00075,33.0827583 75.4580833,33.2504 76.1254167,33.4164167 C77.62425,33.7907667 79.25025,33.6654417 80.8745833,33.499425 C81.4165833,33.4587583 81.83325,33.958425 81.83325,34.4580917 C81.83325,35.0000917 81.37425,35.3744417 80.8745833,35.4167583 C78.87425,35.6250833 76.9585833,35.7080833 75.04125,35.1254167 C72.5836667,34.3769167 70.5833333,32.6255833 69.3333333,30.37625 C68.4576667,28.8348333 67.8326833,27.0428333 67.875,25.2508333 Z M62.9175417,5.83521667 C65.292125,5.16953333 67.8344583,5.00189167 70.292125,5.12721667 C72.8750417,5.25255 75.4174583,5.83521667 77.792125,6.87688333 C81.3337917,8.41813333 84.2927917,10.9606333 86.542125,14.0856333 C86.8334667,14.5023 86.6251333,15.1273167 86.2084667,15.3779667 C85.7494667,15.6693083 85.207475,15.460975 84.9161333,15.0443083 C82.6244667,11.9191417 79.4163833,9.37680833 75.8323833,8.12680833 C74.6247167,7.71014167 73.3747167,7.41880833 72.1247167,7.210475 C72.0824,7.16815833 71.9993917,7.16815833 71.9163833,7.16815833 C71.6657333,7.12584167 72.1247167,7.210475 71.8740667,7.16815833 C71.7503667,7.16815833 71.6250417,7.12584167 71.4997167,7.12584167 C71.2913833,7.08515 71.0407167,7.04283333 70.8323833,7.04283333 C70.4563833,7.04283333 70.0397333,7.00051667 69.6653833,7.00051667 C68.91505,6.9582 68.1223833,6.9582 67.3313833,7.00051667 C65.5393833,7.12585 63.7897167,7.50185 62.12305,8.08451667 C60.7053833,8.58418333 59.3317167,9.29218333 58.0393833,10.1255167 C56.95705,10.8335167 56.1237167,11.50085 55.16505,12.4171833 C54.54005,13.0421833 53.91505,13.70785 53.37305,14.3751833 C53.3594861,14.4028528 53.3412204,14.4260009 53.3213272,14.447642 L53.2914318,14.4779842 L53.3008747,14.4661007 C53.3357324,14.417476 53.2595511,14.4988782 53.2199014,14.5612924 L53.2070333,14.5835167 C53.1663417,14.66815 53.124025,14.7511583 53.0410167,14.8341667 C52.9580083,14.917175 52.9173167,14.9594917 52.875,15.0425 C52.2079175,16.0842583 50.5835842,15.1255917 51.2932092,14.08555 C52.1672092,12.7102167 53.3765417,11.50255 54.5842083,10.41855 C57.0012917,8.33521667 59.834875,6.71088333 62.9175417,5.83521667 Z M67.4160917,0.29145 C72.1248417,0.000116666667 76.7910917,1.12478333 80.959425,3.20811667 C81.4184083,3.41645 81.5437333,4.08378333 81.2930833,4.50045 C81.0424167,4.95943333 80.45975,5.08475833 80.00075,4.83410833 C77.6261667,3.62644167 75.0009167,2.750775 72.3349167,2.33410833 C68.8761667,1.832775 65.3750833,2.125775 62.0840833,3.12510833 C61.49975,3.29110833 60.9170833,3.49944167 60.3750833,3.707775 C60.2497583,3.75009167 60.16675,3.79078333 60.0837417,3.8331 C60.0837417,3.8331 60.0707208,3.84093281 60.0531478,3.85138503 L60.0244318,3.86798425 C60.0225959,3.8684036 60.0144778,3.87089537 60.0007333,3.87541667 L59.9804318,3.88798425 L59.9610466,3.89700144 C59.9014258,3.92228416 59.8172277,3.95846235 59.7738966,3.98395905 L59.7500833,4.00074167 C59.5417667,4.12606667 59.37575,4.209075 59.1674167,4.29208333 C58.75075,4.50041667 58.3747667,4.66643333 58.0004167,4.91708333 C57.583725,5.20845 56.9587292,5.00011667 56.7487667,4.58345 C56.457425,4.12445 56.6657583,3.58245833 57.082425,3.29111667 C57.5820917,2.95745 58.1240917,2.70843333 58.6660917,2.45778333 C61.416925,1.20778333 64.3740917,0.499783333 67.4160917,0.29145 Z" id="Combined-Shape"></path>
            </g>
        </g>
    </g>
</svg>