<?xml version="1.0" encoding="UTF-8"?>
<svg width="16px" height="16px" viewBox="0 0 16 16" version="1.1" xmlns="http://www.w3.org/2000/svg" xmlns:xlink="http://www.w3.org/1999/xlink">
    <!-- Generator: Sketch 59.1 (86144) - https://sketch.com -->
    <title>Fill 1</title>
    <desc>Created with Sketch.</desc>
    <g id="web" stroke="none" stroke-width="1" fill="none" fill-rule="evenodd">
        <g id="Dashboard" transform="translate(-734.000000, -418.000000)" fill="#072952">
            <g id="Group-8" transform="translate(190.000000, 134.000000)">
                <g id="selected-copy" transform="translate(0.000000, 44.000000)">
                    <g id="Group-5">
                        <g id="Group-7" transform="translate(0.000000, 46.000000)">
                            <g id="dati-aggioranti" transform="translate(544.000000, 194.000000)">
                                <path d="M8,0 C3.58192,0 0,3.58192 0,8 C0,12.41808 3.58192,16 8,16 C12.41808,16 16,12.41808 16,8 C16,3.58192 12.41808,0 8,0 Z M7.075632,11.45312 L7.075632,7.79056 C7.075632,7.28056 7.489376,6.866192 8,6.866192 C8.510624,6.866192 8.924368,7.28056 8.924368,7.79056 L8.924368,11.45312 C8.924368,11.963744 8.510624,12.377488 8,12.377488 C7.489376,12.377488 7.075632,11.963744 7.075632,11.45312 Z M8,5.85744 C7.550624,5.85744 7.145632,5.586816 6.973744,5.171808 C6.801248,4.7568 6.8962432,4.278688 7.214368,3.961184 C7.531872,3.643056 8.01,3.548064 8.424992,3.719936 C8.840624,3.891808 9.111248,4.29744 9.111248,4.746816 C9.111248,5.041184 8.9937488,5.323696 8.785616,5.532448 C8.577488,5.740576 8.294368,5.85744 7.999984,5.85744 L8,5.85744 Z" id="Fill-1"></path>
                            </g>
                        </g>
                    </g>
                </g>
            </g>
        </g>
    </g>
</svg>