<?xml version="1.0" encoding="UTF-8"?>
<svg width="21px" height="24px" viewBox="0 0 21 24" version="1.1" xmlns="http://www.w3.org/2000/svg" xmlns:xlink="http://www.w3.org/1999/xlink">
    <!-- Generator: Sketch 59.1 (86144) - https://sketch.com -->
    <title>Group</title>
    <desc>Created with Sketch.</desc>
    <g id="Mobile-app" stroke="none" stroke-width="1" fill="none" fill-rule="evenodd">
        <g id="Login-0.0" transform="translate(-338.000000, -50.000000)" fill="#002855">
            <g id="documenti-legali" transform="translate(224.000000, 50.000000)">
                <g id="Group" transform="translate(114.000000, 0.000000)">
                    <g id="Group-2">
                        <g id="Group-5">
                            <path d="M4.7867036,10.3711911 L7.44598338,10.3711911 C7.8864133,10.3711911 8.24376731,10.0138371 8.24376731,9.5734072 C8.24376731,9.13297729 7.8864133,8.77562327 7.44598338,8.77562327 L4.7867036,8.77562327 C4.34627368,8.77562327 3.98891967,9.13297729 3.98891967,9.5734072 C3.98891967,10.0138371 4.34627368,10.3711911 4.7867036,10.3711911 Z" id="Fill-1"></path>
                            <path d="M17.2853186,2.65927978 L17.0058814,2.65927978 C16.8687637,1.15303712 15.6066482,0.00103711911 14.094236,0 L5.55236343,0 C5.33837385,0 5.13373961,0.086219169 4.98311801,0.238920332 L0.22859169,5.09210593 C0.0821238781,5.24169042 5.85041551e-05,5.44217352 5.85041551e-05,5.65098017 L5.85041551e-05,17.8171852 C0.00109828255,19.3296505 1.15309562,20.5918777 2.65933828,20.7288306 L2.65933828,21.0082677 C2.65933828,22.6235674 3.96924632,23.9334755 5.58454604,23.9334755 L17.2853771,23.9334755 C18.9006768,23.9334755 20.2105848,22.6235674 20.2105848,21.0082677 L20.2105848,5.58444499 C20.2105848,3.96914526 18.9006768,2.65923723 17.2853771,2.65923723 L17.2853186,2.65927978 Z M4.7867036,2.71745152 L4.7867036,4.7866903 C4.7867036,4.85732609 4.75865618,4.92484787 4.70879468,4.97470936 C4.65893319,5.02457086 4.59141141,5.05261828 4.52077562,5.05261828 L2.49929751,5.05261828 L4.7867036,2.71745152 Z M1.59556787,17.817108 L1.59556787,6.64813296 L4.52077562,6.64813296 C5.5491723,6.64813296 6.38227147,5.8150338 6.38227147,4.78663712 L6.38227147,1.59550139 L14.0941828,1.59550139 C14.4463247,1.59550139 14.7849839,1.73573584 15.0342914,1.98503269 C15.2835989,2.23432953 15.4238227,2.57297285 15.4238227,2.92514127 L15.4238227,17.817108 C15.4238227,18.1692499 15.2835883,18.5079091 15.0342914,18.7572166 C14.7849946,19.0065241 14.4463512,19.1467479 14.0941828,19.1467479 L2.92520776,19.1467479 C2.19079446,19.1467479 1.59556787,18.5515213 1.59556787,17.817108 Z M18.6149584,21.0082438 C18.6149584,21.3603856 18.474724,21.6990449 18.2254271,21.9483524 C17.9761303,22.1976598 17.637487,22.3378837 17.2853186,22.3378837 L5.58448753,22.3378837 C4.85007424,22.3378837 4.25484765,21.7426571 4.25484765,21.0082438 L4.25484765,20.7423158 L14.0941828,20.7423158 C15.7094825,20.7423158 17.0193906,19.4324078 17.0193906,17.817108 L17.0193906,4.25478116 L17.2853186,4.25478116 C17.6374604,4.25478116 17.9761197,4.39501562 18.2254271,4.64431247 C18.4747346,4.89360931 18.6149584,5.23225263 18.6149584,5.58442105 L18.6149584,21.0082438 Z" id="Fill-2"></path>
                            <path d="M4.7867036,13.5623269 L12.232687,13.5623269 C12.6731169,13.5623269 13.0304709,13.2049729 13.0304709,12.7645429 C13.0304709,12.324113 12.6731169,11.966759 12.232687,11.966759 L4.7867036,11.966759 C4.34627368,11.966759 3.98891967,12.324113 3.98891967,12.7645429 C3.98891967,13.2049729 4.34627368,13.5623269 4.7867036,13.5623269 Z" id="Fill-3"></path>
                            <path d="M4.7867036,16.7534626 L12.232687,16.7534626 C12.6731169,16.7534626 13.0304709,16.3961086 13.0304709,15.9556787 C13.0304709,15.5152488 12.6731169,15.1578947 12.232687,15.1578947 L4.7867036,15.1578947 C4.34627368,15.1578947 3.98891967,15.5152488 3.98891967,15.9556787 C3.98891967,16.3961086 4.34627368,16.7534626 4.7867036,16.7534626 Z" id="Fill-4"></path>
                        </g>
                    </g>
                </g>
            </g>
        </g>
    </g>
</svg>