<?xml version="1.0" encoding="UTF-8"?>
<svg width="20px" height="14px" viewBox="0 0 20 14" version="1.1" xmlns="http://www.w3.org/2000/svg" xmlns:xlink="http://www.w3.org/1999/xlink">
    <!-- Generator: sketchtool 61 (101010) - https://sketch.com -->
    <title>A785ED05-5248-4507-A099-B6878CE127F0</title>
    <desc>Created with sketchtool.</desc>
    <g id="Mobile-app" stroke="none" stroke-width="1" fill="none" fill-rule="evenodd" opacity="0.199999988">
        <g id="Dashboard-Draft-1" transform="translate(-278.000000, -116.000000)" fill="#072952" fill-rule="nonzero">
            <g id="Stacked-Group" transform="translate(278.000000, 115.000000)">
                <path d="M9.27603707,-1.69907547 L3.32559887,4.22682302 C2.9851428,4.62900635 2.84431342,5.39870649 3.23809242,5.84718589 C3.62641102,6.28988755 4.3797715,6.27540613 4.7694552,5.83561187 L8.94806292,1.6689645 L8.94806292,16.888894 C8.94806292,17.5022986 9.41842756,18 9.99814025,18 C10.5778529,18 11.0482176,17.5022986 11.0482176,16.888894 L11.0482176,1.6689645 L15.2268253,5.83561187 C15.5864068,6.21464715 16.3657742,6.28553572 16.7581881,5.84718589 C17.150602,5.41026199 17.0248097,4.61167309 16.6706816,4.22682302 L10.7202434,-1.69907547 C10.5165179,-1.90162268 10.2772508,-2 9.99831526,-2 C9.74775281,-1.98987264 9.45787546,-1.87991907 9.27603707,-1.69907547 Z" id="l_arrow" transform="translate(10.000000, 8.000000) rotate(-90.000000) translate(-10.000000, -8.000000) "></path>
            </g>
        </g>
    </g>
</svg>