<?xml version="1.0" encoding="UTF-8"?>
<svg width="18px" height="13px" viewBox="0 0 18 13" version="1.1" xmlns="http://www.w3.org/2000/svg" xmlns:xlink="http://www.w3.org/1999/xlink">
    <!-- Generator: sketchtool 61 (101010) - https://sketch.com -->
    <title>75B4B2BD-B393-449F-9641-DAFF0530A511</title>
    <desc>Created with sketchtool.</desc>
    <g id="web" stroke="none" stroke-width="1" fill="none" fill-rule="evenodd">
        <g id="Dashboard--alarm" transform="translate(-24.000000, -686.000000)" fill="#002855" fill-rule="nonzero">
            <g id="Group-10" transform="translate(8.000000, 600.000000)">
                <g id="help-block" transform="translate(0.000000, 68.000000)">
                    <g id="Group-5" transform="translate(16.000000, 12.000000)">
                        <g id="Group-4">
                            <g id="np_mail_650801_000000" transform="translate(0.000000, 6.000000)">
                                <path d="M1.71428571,0 C0.771771429,0 0,0.780346667 0,1.73333333 L0,11.2666667 C0,12.2196533 0.771771429,13 1.71428571,13 L16.2857143,13 C17.2282286,13 18,12.2196533 18,11.2666667 L18,1.73333333 C18,0.780346667 17.2282286,0 16.2857143,0 L1.71428571,0 Z M1.71428571,0.866666667 L16.2857143,0.866666667 C16.7678571,0.866666667 17.1428571,1.24583333 17.1428571,1.73333333 L17.1428571,11.2666667 C17.1428571,11.7541667 16.7678571,12.1333333 16.2857143,12.1333333 L1.71428571,12.1333333 C1.23214286,12.1333333 0.857142857,11.7541667 0.857142857,11.2666667 L0.857142857,1.73333333 C0.857142857,1.24583333 1.23214286,0.866666667 1.71428571,0.866666667 Z M2.73214286,2.37657333 C2.56640571,2.39519323 2.42661429,2.50945067 2.37304286,2.668575 C2.32030929,2.82853567 2.36383521,3.00542667 2.48437071,3.121365 L5.95322786,6.567665 L2.49122786,9.865115 C2.31963214,10.0293072 2.31209786,10.3035183 2.47448679,10.47787 C2.63687464,10.6513723 2.90890821,10.6589903 3.08050821,10.4947971 L6.56929393,7.17719708 L7.78804393,8.38918708 C8.45183679,9.04765875 9.53412964,9.04681375 10.1987582,8.38918708 L11.4309011,7.17043708 L14.9196868,10.4949704 C15.0912825,10.6591626 15.3633225,10.6515468 15.5257082,10.4780433 C15.6880961,10.3036938 15.6805639,10.0294783 15.5089671,9.86528833 L12.04011,6.56783833 L15.51561,3.12153833 C15.5993143,3.0411355 15.6470271,2.93026283 15.6487464,2.814305 C15.6503747,2.69750867 15.6060107,2.58494167 15.5248179,2.50284667 C15.4436229,2.4199045 15.3331329,2.37335367 15.2184536,2.37420083 C15.1029407,2.37420083 14.9932821,2.42159667 14.912925,2.505386 L9.59606786,7.76626933 C9.26375357,8.09549433 8.72218929,8.09549433 8.39071071,7.76626933 L3.08713929,2.505386 C2.99506286,2.40974717 2.86363929,2.36150633 2.73223929,2.37674017 L2.73214286,2.37657333 Z" id="mail-ico"></path>
                            </g>
                        </g>
                    </g>
                </g>
            </g>
        </g>
    </g>
</svg>