<?xml version="1.0" encoding="UTF-8"?>
<svg width="32px" height="32px" viewBox="0 0 32 32" version="1.1" xmlns="http://www.w3.org/2000/svg" xmlns:xlink="http://www.w3.org/1999/xlink">
    <!-- Generator: sketchtool 61 (101010) - https://sketch.com -->
    <title>48B7DC2C-57D2-4136-BB4C-ABE670593F54</title>
    <desc>Created with sketchtool.</desc>
    <g id="Asset-Artboard-Page" stroke="none" stroke-width="1" fill="none" fill-rule="evenodd">
        <g id="Icons/Utility/Profile" fill="#002956">
            <path d="M19.8065773,17.2906672 C21.8964143,17.2906672 23.6639994,18.8351057 23.9454809,20.905482 L23.9454809,20.905482 L24.585296,25.6165243 C24.6204865,25.8748473 24.5427052,26.1331892 24.371408,26.3294843 C24.2001013,26.5267086 23.9538198,26.6378207 23.6936243,26.6387465 L23.6936243,26.6387465 L8.90298771,26.6665249 C8.6455655,26.6665249 8.39650121,26.5544775 8.22612848,26.3618849 C8.05575574,26.1692923 7.97520108,25.9081723 8.00760878,25.6526227 L8.00760878,25.6526227 L8.6011258,20.9443561 C8.86399986,18.8564153 10.639905,17.2906672 12.7445331,17.2906672 L12.7445331,17.2906672 Z M19.8057485,19.092528 L12.7437038,19.092528 C11.5474015,19.092528 10.5372231,19.9832658 10.3881481,21.1702999 L10.3881481,21.1702999 L9.92251253,24.8637778 L22.6594612,24.8397043 L22.1585308,21.1480895 C21.9992656,19.9702999 20.993707,19.092528 19.8057485,19.092528 L19.8057485,19.092528 Z M16.3026959,5.33333333 C19.2137003,5.33404444 21.5720291,7.6925629 21.5720291,10.6026665 C21.5720291,13.5127465 19.2137477,15.8710729 16.3026959,15.8719997 C13.392616,15.8719997 11.0342895,13.5137183 11.0333627,10.6026665 C11.0333627,7.69258661 13.3916441,5.33426015 16.3026959,5.33333333 Z M16.302696,7.13505189 C14.3869153,7.13884448 12.837838,8.68880591 12.8341331,10.6036147 C12.8379257,12.5184473 14.3878872,14.0675246 16.302696,14.0712295 C18.2175285,14.0674369 19.7675326,12.5184236 19.7703107,10.6036147 C19.7665181,8.68783406 18.2175048,7.1387544 16.302696,7.13505189 Z" id="Combined-Shape"></path>
        </g>
    </g>
</svg>