<?xml version="1.0" encoding="UTF-8"?>
<svg width="20px" height="14px" viewBox="0 0 20 14" version="1.1" xmlns="http://www.w3.org/2000/svg" xmlns:xlink="http://www.w3.org/1999/xlink">
    <!-- Generator: sketchtool 61 (101010) - https://sketch.com -->
    <title>FDBCA736-BF43-4565-97C9-5C1165A6DECD</title>
    <desc>Created with sketchtool.</desc>
    <g id="Mobile-app" stroke="none" stroke-width="1" fill="none" fill-rule="evenodd">
        <g id="Dashboard-Draft-1" transform="translate(-330.000000, -116.000000)" fill="#072952" fill-rule="nonzero">
            <g id="Stacked-Group" transform="translate(278.000000, 115.000000)">
                <path d="M61.2760371,-1.69907547 L55.3255989,4.22682302 C54.9851428,4.62900635 54.8443134,5.39870649 55.2380924,5.84718589 C55.626411,6.28988755 56.3797715,6.27540613 56.7694552,5.83561187 L60.9480629,1.6689645 L60.9480629,16.888894 C60.9480629,17.5022986 61.4184276,18 61.9981402,18 C62.5778529,18 63.0482176,17.5022986 63.0482176,16.888894 L63.0482176,1.6689645 L67.2268253,5.83561187 C67.5864068,6.21464715 68.3657742,6.28553572 68.7581881,5.84718589 C69.150602,5.41026199 69.0248097,4.61167309 68.6706816,4.22682302 L62.7202434,-1.69907547 C62.5165179,-1.90162268 62.2772508,-2 61.9983153,-2 C61.7477528,-1.98987264 61.4578755,-1.87991907 61.2760371,-1.69907547 Z" id="r_arrow" transform="translate(62.000000, 8.000000) rotate(90.000000) translate(-62.000000, -8.000000) "></path>
            </g>
        </g>
    </g>
</svg>