<?xml version="1.0" encoding="UTF-8"?>
<svg width="32px" height="32px" viewBox="0 0 32 32" version="1.1" xmlns="http://www.w3.org/2000/svg" xmlns:xlink="http://www.w3.org/1999/xlink">
    <!-- Generator: sketchtool 61 (101010) - https://sketch.com -->
    <title>FE614E14-001D-4497-B8D0-17542C879241</title>
    <desc>Created with sketchtool.</desc>
    <g id="Asset-Artboard-Page" stroke="none" stroke-width="1" fill="none" fill-rule="evenodd">
        <g id="Icons/Utility/Placeholder-Icons/Utility/Request" fill="#2D85EB">
            <path d="M14.90625,18.0234375 L17.09375,18.0234375 L17.09375,15.8359375 L14.90625,15.8359375 L14.90625,18.0234375 Z M14.578125,9.8203125 L12.390625,9.8203125 C12.390625,8.81991406 12.8196484,7.86178906 13.5677187,7.19159375 C14.3365703,6.50275 15.3750859,6.17342187 16.4169375,6.28821094 C18.0733125,6.47048437 19.4075234,7.79342969 19.5893047,9.43389062 C19.7555,10.93375 18.8797891,11.9991719 18.2065859,12.6701328 C18.0377656,12.8384062 17.8824531,12.9854062 17.7454609,13.1150156 C17.1151328,13.7114375 17.0939688,13.7672187 17.0939688,14.0933203 L17.0939688,14.140625 L14.9064688,14.140625 L14.9064688,14.0933203 C14.9064688,12.7896797 15.5551719,12.1758672 16.2419922,11.5260703 C16.3755391,11.3996875 16.5136797,11.2690391 16.6623203,11.1208906 C17.2386172,10.5464531 17.4637109,10.1140391 17.4150938,9.67495312 C17.3451484,9.04369531 16.8246875,8.53389844 16.1775703,8.46264062 C15.7466875,8.41511719 15.3382266,8.54242969 15.0274375,8.82089844 C14.7376484,9.08039062 14.578125,9.43536719 14.578125,9.8203125 L14.578125,9.8203125 Z M26.71875,27.8125 L5.28125,27.8125 C4.67815625,27.8125 4.1875,27.3218438 4.1875,26.71875 L4.1875,15.0300078 L16,23.8162656 L27.8125,15.0300078 L27.8125,26.71875 C27.8125,27.3218438 27.3218438,27.8125 26.71875,27.8125 L26.71875,27.8125 Z M6.6484375,14.1341719 L5.01803906,12.9214219 L6.6484375,11.7054453 L6.6484375,14.1341719 Z M23.1640625,4.1875 L23.1640625,15.7612891 L16,21.0899844 L8.8359375,15.7612891 L8.8359375,4.1875 L23.1640625,4.1875 Z M26.9819063,12.9214766 L25.3515625,14.1341719 L25.3515625,11.7054453 L26.9819063,12.9214766 Z M25.3515625,8.97659375 L25.3515625,2 L6.6484375,2 L6.6484375,8.97653906 L2,12.4435078 L2,26.71875 C2,28.5280313 3.47196875,30 5.28125,30 L26.71875,30 C28.5280313,30 30,28.5280313 30,26.71875 L30,12.4435078 L25.3515625,8.97659375 Z" id="Fill-1"></path>
        </g>
    </g>
</svg>