<?xml version="1.0" encoding="UTF-8"?>
<svg width="25px" height="24px" viewBox="0 0 25 24" version="1.1" xmlns="http://www.w3.org/2000/svg" xmlns:xlink="http://www.w3.org/1999/xlink">
    <!-- Generator: sketchtool 61 (101010) - https://sketch.com -->
    <title>F1F8CBA4-677C-44A3-AA89-5C86213C0E5C</title>
    <desc>Created with sketchtool.</desc>
    <g id="Asset-Artboard-Page" stroke="none" stroke-width="1" fill="none" fill-rule="evenodd">
        <g id="Icon/arrow-circle/right" transform="translate(0.346682, 0.000000)" fill="#002855">
            <g id="np_arrow_2913003_000000">
                <path d="M12,0.0319148936 C18.6153191,0.0319148936 23.9680851,5.38570213 23.9680851,12 C23.9680851,18.6153191 18.6142979,23.9680851 12,23.9680851 C5.38468085,23.9680851 0.0319148936,18.6142979 0.0319148936,12 C0.0319148936,5.38468085 5.38570213,0.0319148936 12,0.0319148936 Z M12,1.02919149 C5.95097872,1.02919149 1.02919149,5.95123404 1.02919149,12 C1.02919149,18.0490213 5.95097872,22.9708085 12,22.9708085 C18.0490213,22.9708085 22.9708085,18.0490213 22.9708085,12 C22.9708085,5.95097872 18.0490213,1.02919149 12,1.02919149 Z M13.4698987,9.39588453 C13.6751722,9.20083488 14.0088811,9.20083488 14.2141599,9.39588453 C17.0197259,12.0654877 16.9091903,11.9244523 16.9691958,12.0814917 C17.0144619,12.2025336 17.0113034,12.3385628 16.9502469,12.4615943 C16.8964594,12.5736738 16.937638,12.5157776 14.2152109,15.103312 C14.0099375,15.2983616 13.6762286,15.2983565 13.4709497,15.103312 C13.2656709,14.9082675 13.2656709,14.5911876 13.4709497,14.3961379 L13.4709497,14.3961379 L15.2037145,12.7497183 L7.52637306,12.7497183 C7.23583171,12.7497183 7.00002457,12.5256617 7.00002457,12.2495973 C7.00002457,11.9735348 7.23583171,11.7494782 7.52637306,11.7494782 L7.52637306,11.7494782 L15.2037145,11.7494782 L13.4698987,10.1030586 C13.2646198,9.90801405 13.2646198,9.59093418 13.4698987,9.39588453 Z" id="Combined-Shape"></path>
            </g>
        </g>
    </g>
</svg>