<?xml version="1.0" encoding="UTF-8"?>
<svg width="24px" height="24px" viewBox="0 0 24 24" version="1.1" xmlns="http://www.w3.org/2000/svg" xmlns:xlink="http://www.w3.org/1999/xlink">
    <!-- Generator: sketchtool 61.2 (101010) - https://sketch.com -->
    <title>0CAB2E3D-6485-4FA1-8520-4054D1F7D907</title>
    <desc>Created with sketchtool.</desc>
    <g id="Mobile-app" stroke="none" stroke-width="1" fill="none" fill-rule="evenodd">
        <g id="Richieste-2.6" transform="translate(-304.000000, -414.000000)" fill="#0061D3" fill-rule="nonzero">
            <g id="Group-2" transform="translate(304.000000, 414.000000)">
                <g id="np_search-lens_337699_000000">
                    <path d="M23.3983561,21.7218708 L17.0503477,15.3155685 L17.0503477,15.3155685 C18.2380507,13.7174222 18.9504613,11.7197394 18.9504613,9.56170919 C18.9504613,4.28756011 14.700596,0 9.47575854,0 C4.24960136,0 0,4.2888919 0,9.56277463 C0,14.8366574 4.2498653,19.1516523 9.47575854,19.1516523 C11.6140462,19.1516523 13.5936568,18.4326996 15.1772608,17.2070279 L21.524282,23.6132623 C22.0370284,24.1307923 22.8722325,24.1346701 23.3897624,23.6219237 C23.3926491,23.6190637 23.3955226,23.6161904 23.3983827,23.6133038 C23.9172969,23.0895949 23.9172851,22.2455651 23.3983561,21.7218708 Z M2.63928723,9.56304098 C2.63928723,5.75385932 5.70144952,2.66490866 9.47465001,2.66490866 C13.2502259,2.66386853 16.3110685,5.75412568 16.3110685,9.56304098 C16.3110685,13.3719563 13.249962,16.4883415 9.47570575,16.4883415 C5.70144952,16.4883415 2.63928723,13.3722226 2.63928723,9.56304098 Z" id="Shape"></path>
                </g>
            </g>
        </g>
    </g>
</svg>