<?xml version="1.0" encoding="UTF-8"?>
<svg width="305px" height="252px" viewBox="0 0 305 252" version="1.1" xmlns="http://www.w3.org/2000/svg" xmlns:xlink="http://www.w3.org/1999/xlink">
    <!-- Generator: sketchtool 61 (101010) - https://sketch.com -->
    <title>2296A432-2229-47B0-B245-CFC634A0D980</title>
    <desc>Created with sketchtool.</desc>
    <g id="Mobile-app" stroke="none" stroke-width="1" fill="none" fill-rule="evenodd">
        <g id="Login-0.2.0-prodotti" transform="translate(-35.000000, -91.000000)" fill="#E9EFFD" fill-rule="nonzero">
            <path d="M319.8537,230.238609 C308.139078,249.11864 310.334188,274.839534 315.479272,295.119834 C317.200617,301.910352 319.184112,309.07847 317.712283,316.677682 C315.911977,325.969804 309.348757,333.266936 302.706576,337.445716 C290.59715,345.044928 276.769538,344.834101 266.700459,336.888755 C258.005297,330.025864 252.279061,318.055924 243.400711,311.561194 C228.556083,300.689443 208.171567,307.278574 190.471718,317.439177 C177.954855,324.610442 164.177777,333.73579 152.608443,328.568955 C144.469166,324.940842 139.393567,314.704719 137.024743,303.565501 C135.881391,298.187839 135.189694,292.313003 132.568196,288.216036 C131.007931,285.780512 128.863356,284.150536 126.639821,282.813201 C106.346899,270.622994 78.8906557,280.815064 59.3210151,267.010615 C46.10298,257.690173 38.5890718,238.438836 36.1191785,217.853309 C33.6492852,197.267782 35.6801565,175.24108 38.2226938,153.554218 C40.0324749,138.135526 42.4802592,121.640673 50.6037446,109.101186 C59.1978363,95.8379646 72.7443483,89.9064884 84.5189804,91.1651571 C96.2936124,92.4238258 106.517455,99.8562645 115.329478,108.940706 C126.342928,120.293898 136.276195,134.793761 150.530195,138.456487 C160.239213,140.951798 170.842067,138.063153 181.166979,136.43003 C198.405698,133.698719 215.404375,134.482241 232.283032,135.508056 C248.441567,136.489817 264.698013,137.710726 279.754255,143.374735 C290.407644,147.386741 298.584823,155.738008 308.527565,161.169164 C315.008666,164.709169 322.320435,165.159144 328.359355,169.879151 C335.797461,175.694201 342.234344,186.427498 339.255943,199.995947 C336.416514,212.903594 326.069493,220.219606 319.8537,230.238609 Z" id="Shape"></path>
        </g>
    </g>
</svg>