<?xml version="1.0" encoding="UTF-8"?>
<svg width="32px" height="32px" viewBox="0 0 32 32" version="1.1" xmlns="http://www.w3.org/2000/svg" xmlns:xlink="http://www.w3.org/1999/xlink">
    <!-- Generator: sketchtool 61 (101010) - https://sketch.com -->
    <title>F8FBF0F9-0384-45BB-B8AF-9E4C33964109</title>
    <desc>Created with sketchtool.</desc>
    <g id="Asset-Artboard-Page" stroke="none" stroke-width="1" fill="none" fill-rule="evenodd">
        <g id="Icons/Utility/Placeholder-Icons/Utility/Situation" fill="#2D85EB">
            <path d="M4,28 L28,28 L28,4 L4,4 L4,28 Z M26.8888889,2 L5.11111111,2 C3.4,2 2,3.4 2,5.11111111 L2,26.8888889 C2,28.6 3.4,30 5.11111111,30 L26.8888889,30 C28.6,30 30,28.6 30,26.8888889 L30,5.11111111 C30,3.4 28.6,2 26.8888889,2 L26.8888889,2 Z M23,22.6111111 C23,20.2777778 18.3333333,19.1111111 16,19.1111111 C13.6666667,19.1111111 9,20.2777778 9,22.6111111 L9,23.7777778 L23,23.7777778 L23,22.6111111 Z M16,16.3888889 C17.9288889,16.3888889 19.5,14.8177778 19.5,12.8888889 C19.5,10.96 17.9288889,9.38888889 16,9.38888889 C14.0711111,9.38888889 12.5,10.96 12.5,12.8888889 C12.5,14.8177778 14.0711111,16.3888889 16,16.3888889 L16,16.3888889 Z" id="Fill-1"></path>
        </g>
    </g>
</svg>