<?xml version="1.0" encoding="UTF-8"?>
<svg width="88px" height="88px" viewBox="0 0 88 88" version="1.1" xmlns="http://www.w3.org/2000/svg" xmlns:xlink="http://www.w3.org/1999/xlink">
    <!-- Generator: sketchtool 61 (101010) - https://sketch.com -->
    <title>503C4B9A-6AE5-4745-93CB-F13A1D947B23</title>
    <desc>Created with sketchtool.</desc>
    <g id="Mobile-app" stroke="none" stroke-width="1" fill="none" fill-rule="evenodd">
        <g id="Registrazione-1.0.1" transform="translate(-144.000000, -111.000000)" fill="#FBB800">
            <g id="Group" transform="translate(16.000000, 99.000000)">
                <path d="M172,12 C147.700897,12 128,31.7008965 128,56 C128,80.3018756 147.700897,100 172,100 C196.301876,100 216,80.3046398 216,56 C216,31.7008965 196.301571,12 172,12 L172,12 Z M172,91.7498749 C152.255114,91.7498749 136.250135,75.7448983 136.250135,56.0000103 C136.250135,36.2551222 152.255116,20.2501456 172,20.2501456 C191.744888,20.2501456 207.749865,36.2551244 207.749865,56.0000145 C207.749865,75.7449069 191.744892,91.7498749 172,91.7498749 L172,91.7498749 Z M172.002776,31.2966739 C168.851369,31.2966739 166.466896,32.9412856 166.466896,35.5977078 L166.466896,59.9626458 C166.466896,62.6218355 168.851059,64.2609113 172.002776,64.2609113 C175.077274,64.2609113 177.538654,62.5532357 177.538654,59.9626458 L177.538654,35.5977078 C177.538348,33.0043513 175.077274,31.2966739 172.002776,31.2966739 L172.002776,31.2966739 Z M172.00277,69.7500318 C168.975035,69.7500318 166.510885,72.2141794 166.510885,75.2443775 C166.510885,78.2693458 168.975035,80.7334937 172.00277,80.7334937 C175.030504,80.7334937 177.491888,78.2693458 177.491888,75.2443775 C177.491583,72.2138696 175.030509,69.7500318 172.00277,69.7500318 L172.00277,69.7500318 Z" id="warning"></path>
            </g>
        </g>
    </g>
</svg>